<?xml version="1.0" encoding="UTF-8" standalone="no"?>
<svg
   inkscape:export-ydpi="399.978"
   inkscape:export-xdpi="399.978"
   inkscape:export-filename="/mnt/raid/repos/hichip-nf-pipeline/hichip_nf_pipeline.png"
   sodipodi:docname="hichip_nf_pipeline.svg"
   inkscape:version="1.1.2 (0a00cf5339, 2022-02-04)"
   width="210mm"
   height="297mm"
   viewBox="0 0 210 297"
   version="1.1"
   id="svg8"
   xmlns:inkscape="http://www.inkscape.org/namespaces/inkscape"
   xmlns:sodipodi="http://sodipodi.sourceforge.net/DTD/sodipodi-0.dtd"
   xmlns="http://www.w3.org/2000/svg"
   xmlns:svg="http://www.w3.org/2000/svg"
   xmlns:rdf="http://www.w3.org/1999/02/22-rdf-syntax-ns#"
   xmlns:cc="http://creativecommons.org/ns#"
   xmlns:dc="http://purl.org/dc/elements/1.1/">
  <defs
     id="defs2">
    <rect
       x="-6.4764747"
       y="448.19723"
       width="408.73058"
       height="121.26255"
       id="rect14565" />
    <marker
       inkscape:stockid="Arrow1Lend"
       orient="auto"
       refY="0.0"
       refX="0.0"
       id="marker7110"
       style="overflow:visible;"
       inkscape:isstock="true">
      <path
         id="path7108"
         d="M 0.0,0.0 L 5.0,-5.0 L -12.5,0.0 L 5.0,5.0 L 0.0,0.0 z "
         style="fill-rule:evenodd;stroke:#000000;stroke-width:1pt;stroke-opacity:1;fill:#000000;fill-opacity:1"
         transform="scale(0.8) rotate(180) translate(12.5,0)" />
    </marker>
    <rect
       id="rect44225"
       height="137.96131"
       width="141.74107"
       y="-69.358631"
       x="-82.209822" />
    <marker
       inkscape:isstock="true"
       style="overflow:visible;"
       id="marker43541"
       refX="0.0"
       refY="0.0"
       orient="auto"
       inkscape:stockid="Arrow1Lend">
      <path
         transform="scale(0.8) rotate(180) translate(12.5,0)"
         style="fill-rule:evenodd;stroke:#000000;stroke-width:1pt;stroke-opacity:1;fill:#000000;fill-opacity:1"
         d="M 0.0,0.0 L 5.0,-5.0 L -12.5,0.0 L 5.0,5.0 L 0.0,0.0 z "
         id="path43539" />
    </marker>
    <marker
       inkscape:isstock="true"
       style="overflow:visible;"
       id="marker42557"
       refX="0.0"
       refY="0.0"
       orient="auto"
       inkscape:stockid="Arrow1Lend">
      <path
         transform="scale(0.8) rotate(180) translate(12.5,0)"
         style="fill-rule:evenodd;stroke:#000000;stroke-width:1pt;stroke-opacity:1;fill:#000000;fill-opacity:1"
         d="M 0.0,0.0 L 5.0,-5.0 L -12.5,0.0 L 5.0,5.0 L 0.0,0.0 z "
         id="path42555" />
    </marker>
    <marker
       inkscape:stockid="Arrow1Lend"
       orient="auto"
       refY="0.0"
       refX="0.0"
       id="marker42547"
       style="overflow:visible;"
       inkscape:isstock="true">
      <path
         id="path42545"
         d="M 0.0,0.0 L 5.0,-5.0 L -12.5,0.0 L 5.0,5.0 L 0.0,0.0 z "
         style="fill-rule:evenodd;stroke:#000000;stroke-width:1pt;stroke-opacity:1;fill:#000000;fill-opacity:1"
         transform="scale(0.8) rotate(180) translate(12.5,0)" />
    </marker>
    <marker
       inkscape:isstock="true"
       style="overflow:visible;"
       id="marker42427"
       refX="0.0"
       refY="0.0"
       orient="auto"
       inkscape:stockid="Arrow1Lend">
      <path
         transform="scale(0.8) rotate(180) translate(12.5,0)"
         style="fill-rule:evenodd;stroke:#000000;stroke-width:1pt;stroke-opacity:1;fill:#000000;fill-opacity:1"
         d="M 0.0,0.0 L 5.0,-5.0 L -12.5,0.0 L 5.0,5.0 L 0.0,0.0 z "
         id="path42425" />
    </marker>
    <marker
       id="arrow"
       viewBox="0 -5 10 10"
       markerWidth="7"
       markerHeight="7"
       orient="auto"
       refX="40">
      <path
         d="M0,-5L10,0L0,5"
         style="stroke: rgb(80, 80, 80); fill: none;"
         id="path2723" />
    </marker>
    <style
       type="text/css"
       id="style41654">*{stroke-linejoin: round; stroke-linecap: butt}</style>
    <path
       id="m76c1834291"
       d="M 0 0  L 0 3.5  "
       style="stroke: #000000; stroke-width: 0.8" />
    <path
       id="md73748a4b7"
       d="M 0 0  L -3.5 0  "
       style="stroke: #000000; stroke-width: 0.8" />
    <clipPath
       id="pac58b451a7">
      <rect
         x="10.8"
         y="10.8"
         width="518.4"
         height="230.4"
         id="rect41833" />
    </clipPath>
    <style
       id="style2590"
       type="text/css">*{stroke-linejoin: round; stroke-linecap: butt}</style>
    <path
       style="stroke: #000000; stroke-width: 0.8"
       d="M 0 0  L 0 3.5  "
       id="maf2f026b2e" />
    <path
       transform="scale(0.015625)"
       d="M 2034 4250  Q 1547 4250 1301 3770  Q 1056 3291 1056 2328  Q 1056 1369 1301 889  Q 1547 409 2034 409  Q 2525 409 2770 889  Q 3016 1369 3016 2328  Q 3016 3291 2770 3770  Q 2525 4250 2034 4250  z M 2034 4750  Q 2819 4750 3233 4129  Q 3647 3509 3647 2328  Q 3647 1150 3233 529  Q 2819 -91 2034 -91  Q 1250 -91 836 529  Q 422 1150 422 2328  Q 422 3509 836 4129  Q 1250 4750 2034 4750  z "
       id="DejaVuSans-30" />
    <path
       transform="scale(0.015625)"
       id="DejaVuSans-20" />
    <path
       transform="scale(0.015625)"
       d="M 3116 1747  Q 3116 2381 2855 2742  Q 2594 3103 2138 3103  Q 1681 3103 1420 2742  Q 1159 2381 1159 1747  Q 1159 1113 1420 752  Q 1681 391 2138 391  Q 2594 391 2855 752  Q 3116 1113 3116 1747  z M 1159 2969  Q 1341 3281 1617 3432  Q 1894 3584 2278 3584  Q 2916 3584 3314 3078  Q 3713 2572 3713 1747  Q 3713 922 3314 415  Q 2916 -91 2278 -91  Q 1894 -91 1617 61  Q 1341 213 1159 525  L 1159 0  L 581 0  L 581 4863  L 1159 4863  L 1159 2969  z "
       id="DejaVuSans-62" />
    <path
       transform="scale(0.015625)"
       d="M 794 531  L 1825 531  L 1825 4091  L 703 3866  L 703 4441  L 1819 4666  L 2450 4666  L 2450 531  L 3481 531  L 3481 0  L 794 0  L 794 531  z "
       id="DejaVuSans-31" />
    <path
       transform="scale(0.015625)"
       d="M 628 4666  L 1569 4666  L 2759 1491  L 3956 4666  L 4897 4666  L 4897 0  L 4281 0  L 4281 4097  L 3078 897  L 2444 897  L 1241 4097  L 1241 0  L 628 0  L 628 4666  z "
       id="DejaVuSans-4d" />
    <path
       transform="scale(0.015625)"
       d="M 1228 531  L 3431 531  L 3431 0  L 469 0  L 469 531  Q 828 903 1448 1529  Q 2069 2156 2228 2338  Q 2531 2678 2651 2914  Q 2772 3150 2772 3378  Q 2772 3750 2511 3984  Q 2250 4219 1831 4219  Q 1534 4219 1204 4116  Q 875 4013 500 3803  L 500 4441  Q 881 4594 1212 4672  Q 1544 4750 1819 4750  Q 2544 4750 2975 4387  Q 3406 4025 3406 3419  Q 3406 3131 3298 2873  Q 3191 2616 2906 2266  Q 2828 2175 2409 1742  Q 1991 1309 1228 531  z "
       id="DejaVuSans-32" />
    <path
       transform="scale(0.015625)"
       d="M 2597 2516  Q 3050 2419 3304 2112  Q 3559 1806 3559 1356  Q 3559 666 3084 287  Q 2609 -91 1734 -91  Q 1441 -91 1130 -33  Q 819 25 488 141  L 488 750  Q 750 597 1062 519  Q 1375 441 1716 441  Q 2309 441 2620 675  Q 2931 909 2931 1356  Q 2931 1769 2642 2001  Q 2353 2234 1838 2234  L 1294 2234  L 1294 2753  L 1863 2753  Q 2328 2753 2575 2939  Q 2822 3125 2822 3475  Q 2822 3834 2567 4026  Q 2313 4219 1838 4219  Q 1578 4219 1281 4162  Q 984 4106 628 3988  L 628 4550  Q 988 4650 1302 4700  Q 1616 4750 1894 4750  Q 2613 4750 3031 4423  Q 3450 4097 3450 3541  Q 3450 3153 3228 2886  Q 3006 2619 2597 2516  z "
       id="DejaVuSans-33" />
    <path
       transform="scale(0.015625)"
       d="M 2419 4116  L 825 1625  L 2419 1625  L 2419 4116  z M 2253 4666  L 3047 4666  L 3047 1625  L 3713 1625  L 3713 1100  L 3047 1100  L 3047 0  L 2419 0  L 2419 1100  L 313 1100  L 313 1709  L 2253 4666  z "
       id="DejaVuSans-34" />
    <path
       transform="scale(0.015625)"
       d="M 691 4666  L 3169 4666  L 3169 4134  L 1269 4134  L 1269 2991  Q 1406 3038 1543 3061  Q 1681 3084 1819 3084  Q 2600 3084 3056 2656  Q 3513 2228 3513 1497  Q 3513 744 3044 326  Q 2575 -91 1722 -91  Q 1428 -91 1123 -41  Q 819 9 494 109  L 494 744  Q 775 591 1075 516  Q 1375 441 1709 441  Q 2250 441 2565 725  Q 2881 1009 2881 1497  Q 2881 1984 2565 2268  Q 2250 2553 1709 2553  Q 1456 2553 1204 2497  Q 953 2441 691 2322  L 691 4666  z "
       id="DejaVuSans-35" />
    <path
       transform="scale(0.015625)"
       d="M 2113 2584  Q 1688 2584 1439 2293  Q 1191 2003 1191 1497  Q 1191 994 1439 701  Q 1688 409 2113 409  Q 2538 409 2786 701  Q 3034 994 3034 1497  Q 3034 2003 2786 2293  Q 2538 2584 2113 2584  z M 3366 4563  L 3366 3988  Q 3128 4100 2886 4159  Q 2644 4219 2406 4219  Q 1781 4219 1451 3797  Q 1122 3375 1075 2522  Q 1259 2794 1537 2939  Q 1816 3084 2150 3084  Q 2853 3084 3261 2657  Q 3669 2231 3669 1497  Q 3669 778 3244 343  Q 2819 -91 2113 -91  Q 1303 -91 875 529  Q 447 1150 447 2328  Q 447 3434 972 4092  Q 1497 4750 2381 4750  Q 2619 4750 2861 4703  Q 3103 4656 3366 4563  z "
       id="DejaVuSans-36" />
    <path
       transform="scale(0.015625)"
       d="M 525 4666  L 3525 4666  L 3525 4397  L 1831 0  L 1172 0  L 2766 4134  L 525 4134  L 525 4666  z "
       id="DejaVuSans-37" />
    <path
       transform="scale(0.015625)"
       d="M 2034 2216  Q 1584 2216 1326 1975  Q 1069 1734 1069 1313  Q 1069 891 1326 650  Q 1584 409 2034 409  Q 2484 409 2743 651  Q 3003 894 3003 1313  Q 3003 1734 2745 1975  Q 2488 2216 2034 2216  z M 1403 2484  Q 997 2584 770 2862  Q 544 3141 544 3541  Q 544 4100 942 4425  Q 1341 4750 2034 4750  Q 2731 4750 3128 4425  Q 3525 4100 3525 3541  Q 3525 3141 3298 2862  Q 3072 2584 2669 2484  Q 3125 2378 3379 2068  Q 3634 1759 3634 1313  Q 3634 634 3220 271  Q 2806 -91 2034 -91  Q 1263 -91 848 271  Q 434 634 434 1313  Q 434 1759 690 2068  Q 947 2378 1403 2484  z M 1172 3481  Q 1172 3119 1398 2916  Q 1625 2713 2034 2713  Q 2441 2713 2670 2916  Q 2900 3119 2900 3481  Q 2900 3844 2670 4047  Q 2441 4250 2034 4250  Q 1625 4250 1398 4047  Q 1172 3844 1172 3481  z "
       id="DejaVuSans-38" />
    <path
       style="stroke: #000000; stroke-width: 0.8"
       d="M 0 0  L -3.5 0  "
       id="ma7c5c6c059" />
    <path
       transform="scale(0.015625)"
       d="M 1159 525  L 1159 -1331  L 581 -1331  L 581 3500  L 1159 3500  L 1159 2969  Q 1341 3281 1617 3432  Q 1894 3584 2278 3584  Q 2916 3584 3314 3078  Q 3713 2572 3713 1747  Q 3713 922 3314 415  Q 2916 -91 2278 -91  Q 1894 -91 1617 61  Q 1341 213 1159 525  z M 3116 1747  Q 3116 2381 2855 2742  Q 2594 3103 2138 3103  Q 1681 3103 1420 2742  Q 1159 2381 1159 1747  Q 1159 1113 1420 752  Q 1681 391 2138 391  Q 2594 391 2855 752  Q 3116 1113 3116 1747  z "
       id="DejaVuSans-70" />
    <path
       transform="scale(0.015625)"
       d="M 1959 3097  Q 1497 3097 1228 2736  Q 959 2375 959 1747  Q 959 1119 1226 758  Q 1494 397 1959 397  Q 2419 397 2687 759  Q 2956 1122 2956 1747  Q 2956 2369 2687 2733  Q 2419 3097 1959 3097  z M 1959 3584  Q 2709 3584 3137 3096  Q 3566 2609 3566 1747  Q 3566 888 3137 398  Q 2709 -91 1959 -91  Q 1206 -91 779 398  Q 353 888 353 1747  Q 353 2609 779 3096  Q 1206 3584 1959 3584  z "
       id="DejaVuSans-6f" />
    <path
       transform="scale(0.015625)"
       d="M 2834 3397  L 2834 2853  Q 2591 2978 2328 3040  Q 2066 3103 1784 3103  Q 1356 3103 1142 2972  Q 928 2841 928 2578  Q 928 2378 1081 2264  Q 1234 2150 1697 2047  L 1894 2003  Q 2506 1872 2764 1633  Q 3022 1394 3022 966  Q 3022 478 2636 193  Q 2250 -91 1575 -91  Q 1294 -91 989 -36  Q 684 19 347 128  L 347 722  Q 666 556 975 473  Q 1284 391 1588 391  Q 1994 391 2212 530  Q 2431 669 2431 922  Q 2431 1156 2273 1281  Q 2116 1406 1581 1522  L 1381 1569  Q 847 1681 609 1914  Q 372 2147 372 2553  Q 372 3047 722 3315  Q 1072 3584 1716 3584  Q 2034 3584 2315 3537  Q 2597 3491 2834 3397  z "
       id="DejaVuSans-73" />
    <path
       transform="scale(0.015625)"
       d="M 603 3500  L 1178 3500  L 1178 0  L 603 0  L 603 3500  z M 603 4863  L 1178 4863  L 1178 4134  L 603 4134  L 603 4863  z "
       id="DejaVuSans-69" />
    <path
       transform="scale(0.015625)"
       d="M 1172 4494  L 1172 3500  L 2356 3500  L 2356 3053  L 1172 3053  L 1172 1153  Q 1172 725 1289 603  Q 1406 481 1766 481  L 2356 481  L 2356 0  L 1766 0  Q 1100 0 847 248  Q 594 497 594 1153  L 594 3053  L 172 3053  L 172 3500  L 594 3500  L 594 4494  L 1172 4494  z "
       id="DejaVuSans-74" />
    <path
       transform="scale(0.015625)"
       d="M 3513 2113  L 3513 0  L 2938 0  L 2938 2094  Q 2938 2591 2744 2837  Q 2550 3084 2163 3084  Q 1697 3084 1428 2787  Q 1159 2491 1159 1978  L 1159 0  L 581 0  L 581 3500  L 1159 3500  L 1159 2956  Q 1366 3272 1645 3428  Q 1925 3584 2291 3584  Q 2894 3584 3203 3211  Q 3513 2838 3513 2113  z "
       id="DejaVuSans-6e" />
    <path
       transform="scale(0.015625)"
       d="M 750 794  L 1409 794  L 1409 256  L 897 -744  L 494 -744  L 750 256  L 750 794  z "
       id="DejaVuSans-2c" />
    <path
       transform="scale(0.015625)"
       d="M 3122 3366  L 3122 2828  Q 2878 2963 2633 3030  Q 2388 3097 2138 3097  Q 1578 3097 1268 2742  Q 959 2388 959 1747  Q 959 1106 1268 751  Q 1578 397 2138 397  Q 2388 397 2633 464  Q 2878 531 3122 666  L 3122 134  Q 2881 22 2623 -34  Q 2366 -91 2075 -91  Q 1284 -91 818 406  Q 353 903 353 1747  Q 353 2603 823 3093  Q 1294 3584 2113 3584  Q 2378 3584 2631 3529  Q 2884 3475 3122 3366  z "
       id="DejaVuSans-63" />
    <path
       transform="scale(0.015625)"
       d="M 3513 2113  L 3513 0  L 2938 0  L 2938 2094  Q 2938 2591 2744 2837  Q 2550 3084 2163 3084  Q 1697 3084 1428 2787  Q 1159 2491 1159 1978  L 1159 0  L 581 0  L 581 4863  L 1159 4863  L 1159 2956  Q 1366 3272 1645 3428  Q 1925 3584 2291 3584  Q 2894 3584 3203 3211  Q 3513 2838 3513 2113  z "
       id="DejaVuSans-68" />
    <path
       transform="scale(0.015625)"
       d="M 2631 2963  Q 2534 3019 2420 3045  Q 2306 3072 2169 3072  Q 1681 3072 1420 2755  Q 1159 2438 1159 1844  L 1159 0  L 581 0  L 581 3500  L 1159 3500  L 1159 2956  Q 1341 3275 1631 3429  Q 1922 3584 2338 3584  Q 2397 3584 2469 3576  Q 2541 3569 2628 3553  L 2631 2963  z "
       id="DejaVuSans-72" />
    <path
       style="stroke: #000000; stroke-width: 0.8"
       d="M 0 0  L 3.5 0  "
       id="m45e59ef844" />
    <path
       transform="scale(0.015625)"
       d="M 2194 1759  Q 1497 1759 1228 1600  Q 959 1441 959 1056  Q 959 750 1161 570  Q 1363 391 1709 391  Q 2188 391 2477 730  Q 2766 1069 2766 1631  L 2766 1759  L 2194 1759  z M 3341 1997  L 3341 0  L 2766 0  L 2766 531  Q 2569 213 2275 61  Q 1981 -91 1556 -91  Q 1019 -91 701 211  Q 384 513 384 1019  Q 384 1609 779 1909  Q 1175 2209 1959 2209  L 2766 2209  L 2766 2266  Q 2766 2663 2505 2880  Q 2244 3097 1772 3097  Q 1472 3097 1187 3025  Q 903 2953 641 2809  L 641 3341  Q 956 3463 1253 3523  Q 1550 3584 1831 3584  Q 2591 3584 2966 3190  Q 3341 2797 3341 1997  z "
       id="DejaVuSans-61" />
    <path
       transform="scale(0.015625)"
       d="M 269 3500  L 844 3500  L 1563 769  L 2278 3500  L 2956 3500  L 3675 769  L 4391 3500  L 4966 3500  L 4050 0  L 3372 0  L 2619 2869  L 1863 0  L 1184 0  L 269 3500  z "
       id="DejaVuSans-77" />
    <path
       transform="scale(0.015625)"
       d="M 544 1381  L 544 3500  L 1119 3500  L 1119 1403  Q 1119 906 1312 657  Q 1506 409 1894 409  Q 2359 409 2629 706  Q 2900 1003 2900 1516  L 2900 3500  L 3475 3500  L 3475 0  L 2900 0  L 2900 538  Q 2691 219 2414 64  Q 2138 -91 1772 -91  Q 1169 -91 856 284  Q 544 659 544 1381  z M 1991 3584  L 1991 3584  z "
       id="DejaVuSans-75" />
    <clipPath
       id="p6cc96a5f4a">
      <rect
         id="rect3154"
         height="332.64"
         width="332.64"
         y="51.84"
         x="87.3684" />
    </clipPath>
    <clipPath
       id="p928a6ffd2f">
      <rect
         id="rect3157"
         height="332.64"
         width="16.632"
         y="51.84"
         x="435.6324" />
    </clipPath>
    <clipPath
       clipPathUnits="userSpaceOnUse"
       id="clipPath12181">
      <path
         style="fill:none;stroke:#000000;stroke-width:0.502261px;stroke-linecap:butt;stroke-linejoin:miter;stroke-opacity:1"
         d="m 112.22775,30.60292 c -13.803041,11.183419 3.1107,11.191219 5.43953,7.009254 12.83142,-23.041879 34.08699,19.626906 16.0801,17.430391 -11.1815,0.209642 -29.05145,-25.652752 -23.46758,-0.07248 4.9395,22.628317 -39.670512,0.0067 -18.979516,-3.059118 37.047856,-9.030444 -11.068719,-23.142144 -7.761055,-1.422038"
         id="path12183"
         sodipodi:nodetypes="cscscc" />
    </clipPath>
    <clipPath
       clipPathUnits="userSpaceOnUse"
       id="clipPath13502">
      <circle
         style="fill:#008000;fill-opacity:0.382042;stroke-width:0.180791"
         id="circle13504"
         r="7.5054746"
         cy="-25.210108"
         cx="113.31091" />
    </clipPath>
    <clipPath
       clipPathUnits="userSpaceOnUse"
       id="clipPath13945">
      <circle
         style="fill:#008000;fill-opacity:0.382042;stroke-width:0.13832"
         id="circle13947"
         cy="-42.330261"
         cx="111.87487"
         r="5.7423034" />
    </clipPath>
  </defs>
  <sodipodi:namedview
     inkscape:pagecheckerboard="0"
     inkscape:window-maximized="1"
     inkscape:window-y="0"
     inkscape:window-x="2560"
     inkscape:window-height="1403"
     inkscape:window-width="2560"
     inkscape:guide-bbox="true"
     showguides="false"
     showgrid="false"
     inkscape:document-rotation="0"
     inkscape:current-layer="layer1"
     inkscape:document-units="mm"
     inkscape:cy="17.810252"
     inkscape:cx="39.222329"
     inkscape:zoom="22.627417"
     inkscape:pageshadow="2"
     inkscape:pageopacity="0.0"
     borderopacity="1.0"
     bordercolor="#666666"
     pagecolor="#ffffff"
     id="base" />
  <metadata
     id="metadata5">
    <rdf:RDF>
      <cc:Work
         rdf:about="">
        <dc:format>image/svg+xml</dc:format>
        <dc:type
           rdf:resource="http://purl.org/dc/dcmitype/StillImage" />
        <dc:title />
      </cc:Work>
    </rdf:RDF>
  </metadata>
  <g
     id="layer1"
     inkscape:groupmode="layer"
     inkscape:label="Layer 1">
    <rect
       y="5.2314167"
       x="9.1781788"
       height="85.51194"
       width="190.89999"
       id="rect1354"
       style="fill:#ffffff;fill-opacity:1;stroke:#fffffb;stroke-width:0.208912;stroke-linejoin:round;stroke-miterlimit:4;stroke-dasharray:none;stroke-opacity:1"
       inkscape:export-filename="/mnt/raid/repos/hichip-nf-pipeline/rect1354.png"
       inkscape:export-xdpi="399.978"
       inkscape:export-ydpi="399.978" />
    <rect
       ry="1.2534719"
       rx="1.2534719"
       y="5.2314167"
       x="9.1781788"
       height="85.51194"
       width="190.90045"
       id="rect3749"
       style="fill:#ff5500;fill-opacity:0.1;stroke:#000000;stroke-width:0.208912;stroke-linejoin:round;stroke-miterlimit:4;stroke-dasharray:none;stroke-opacity:1" />
    <text
       id="text42483"
       y="-63.688988"
       x="173.1131"
       style="font-size:7.05556px;line-height:1.25;font-family:sans-serif;stroke-width:0.264583"
       xml:space="preserve"><tspan
         style="stroke-width:0.264583"
         y="-63.688988"
         x="173.1131"
         id="tspan42481"
         sodipodi:role="line" /></text>
    <rect
       y="11.784487"
       x="14.64729"
       height="7.0221124"
       width="46.317036"
       id="rect2745"
       style="fill:#ff0000;fill-opacity:0.6;fill-rule:evenodd;stroke:#000000;stroke-width:0.208912;stroke-linejoin:miter;stroke-miterlimit:4;stroke-dasharray:1.67129, 1.67129;stroke-dashoffset:0;stroke-opacity:1" />
    <rect
       y="11.784487"
       x="79.582947"
       height="7.0221124"
       width="46.317059"
       id="rect2657"
       style="fill:#ff5500;fill-opacity:0.6;fill-rule:evenodd;stroke:#000000;stroke-width:0.208912;stroke-linejoin:miter;stroke-miterlimit:4;stroke-dasharray:1.67129, 1.67129;stroke-dashoffset:0;stroke-opacity:1" />
    <rect
       y="28.097639"
       x="79.582947"
       height="7.0221124"
       width="46.317059"
       id="rect2655"
       style="fill:#ff5500;fill-opacity:0.6;fill-rule:evenodd;stroke:#000000;stroke-width:0.208912;stroke-linejoin:miter;stroke-miterlimit:4;stroke-dasharray:1.67129, 1.67129;stroke-dashoffset:0;stroke-opacity:1" />
    <rect
       y="28.098181"
       x="14.64728"
       height="7.0221124"
       width="46.317059"
       id="rect2407"
       style="fill:#ff5500;fill-opacity:0.6;fill-rule:evenodd;stroke:#000000;stroke-width:0.208912;stroke-linejoin:miter;stroke-miterlimit:4;stroke-dasharray:1.67129, 1.67129;stroke-dashoffset:0;stroke-opacity:1" />
    <text
       id="text3739"
       y="32.422523"
       x="27.425949"
       style="font-size:2.94799px;line-height:1.25;font-family:sans-serif;stroke-width:0.110549"
       xml:space="preserve"><tspan
         style="stroke-width:0.110549"
         y="32.422523"
         x="27.425949"
         id="tspan3737"
         sodipodi:role="line">ParsePairtools</tspan><tspan
         id="tspan3741"
         style="stroke-width:0.110549"
         y="36.10751"
         x="27.425949"
         sodipodi:role="line" /></text>
    <text
       xml:space="preserve"
       style="font-size:2.94799px;line-height:1.25;font-family:sans-serif;stroke-width:0.110549"
       x="93.723335"
       y="32.421982"
       id="text3735"><tspan
         sodipodi:role="line"
         id="tspan3733"
         x="93.723335"
         y="32.421982"
         style="stroke-width:0.110549">FilterQuality</tspan></text>
    <text
       xml:space="preserve"
       style="font-size:2.94799px;line-height:1.25;font-family:sans-serif;stroke-width:0.110549"
       x="96.405045"
       y="16.108828"
       id="text3789"><tspan
         sodipodi:role="line"
         id="tspan3787"
         x="96.405045"
         y="16.108828"
         style="stroke-width:0.110549">Mapping</tspan></text>
    <text
       xml:space="preserve"
       style="font-size:2.94799px;line-height:1.25;font-family:sans-serif;stroke-width:0.110549"
       x="31.151257"
       y="16.394556"
       id="text42487"><tspan
         sodipodi:role="line"
         id="tspan42485"
         x="31.151257"
         y="16.394556"
         style="stroke-width:0.110549">Raw files</tspan></text>
    <text
       style="font-size:7.05556px;line-height:1.25;font-family:sans-serif;white-space:pre;shape-inside:url(#rect44225)"
       id="text44223"
       xml:space="preserve" />
    <rect
       y="60.725578"
       x="79.42749"
       height="7.0221124"
       width="46.317059"
       id="rect10887"
       style="fill:#ff5500;fill-opacity:0.6;fill-rule:evenodd;stroke:#000000;stroke-width:0.208912;stroke-linejoin:miter;stroke-miterlimit:4;stroke-dasharray:1.67129, 1.67129;stroke-dashoffset:0;stroke-opacity:1" />
    <text
       xml:space="preserve"
       style="font-size:2.94799px;line-height:1.25;font-family:sans-serif;stroke-width:0.110549"
       x="95.555771"
       y="65.166389"
       id="text10891"><tspan
         sodipodi:role="line"
         id="tspan10889"
         x="95.555771"
         y="65.166389"
         style="stroke-width:0.110549">CallPeaks</tspan></text>
    <rect
       y="44.41188"
       x="14.64728"
       height="7.0221124"
       width="46.317059"
       id="rect10893"
       style="fill:#ff5500;fill-opacity:0.6;fill-rule:evenodd;stroke:#000000;stroke-width:0.208912;stroke-linejoin:miter;stroke-miterlimit:4;stroke-dasharray:1.67129, 1.67129;stroke-dashoffset:0;stroke-opacity:1" />
    <text
       xml:space="preserve"
       style="font-size:2.94799px;line-height:1.25;font-family:sans-serif;stroke-width:0.110549"
       x="23.961227"
       y="48.852684"
       id="text10897"><tspan
         sodipodi:role="line"
         id="tspan10895"
         x="23.961227"
         y="48.852684"
         style="stroke-width:0.110549">RemoveDuplicates</tspan></text>
    <text
       xml:space="preserve"
       transform="scale(0.26458333)"
       id="text14563"
       style="font-style:normal;font-weight:normal;font-size:40px;line-height:1.25;font-family:sans-serif;white-space:pre;shape-inside:url(#rect14565);fill:#000000;fill-opacity:1;stroke:none" />
    <rect
       y="77.039276"
       x="14.647278"
       height="7.0221124"
       width="46.317059"
       id="rect15265"
       style="fill:#ff5500;fill-opacity:0.6;fill-rule:evenodd;stroke:#000000;stroke-width:0.208912;stroke-linejoin:miter;stroke-miterlimit:4;stroke-dasharray:1.67129, 1.67129;stroke-dashoffset:0;stroke-opacity:1" />
    <text
       xml:space="preserve"
       style="font-size:2.94799px;line-height:1.25;font-family:sans-serif;stroke-width:0.110549"
       x="27.832615"
       y="81.36364"
       id="text15269"><tspan
         sodipodi:role="line"
         id="tspan15267"
         x="27.832615"
         y="81.36364"
         style="stroke-width:0.110549">CreateBigWig</tspan></text>
    <rect
       y="44.072166"
       x="147.25613"
       height="7.0221124"
       width="46.317059"
       id="rect15271"
       style="fill:#ff5500;fill-opacity:0.6;fill-rule:evenodd;stroke:#000000;stroke-width:0.208912;stroke-linejoin:miter;stroke-miterlimit:4;stroke-dasharray:1.67129, 1.67129;stroke-dashoffset:0;stroke-opacity:1" />
    <text
       xml:space="preserve"
       style="font-size:2.94799px;line-height:1.25;font-family:sans-serif;stroke-width:0.110549"
       x="163.63702"
       y="48.512978"
       id="text15275"><tspan
         sodipodi:role="line"
         id="tspan15273"
         x="163.63702"
         y="48.512978"
         style="stroke-width:0.110549">RunMaps</tspan></text>
    <path
       style="fill:none;stroke:#000000;stroke-width:0.215817px;stroke-linecap:butt;stroke-linejoin:miter;stroke-opacity:1;marker-end:url(#marker7110)"
       d="M 62.202113,15.295544 H 78.82973"
       id="path15444" />
    <path
       style="fill:none;stroke:#000000;stroke-width:0.215817px;stroke-linecap:butt;stroke-linejoin:miter;stroke-opacity:1;marker-end:url(#marker7110)"
       d="M 78.944799,31.69764 H 62.317186"
       id="path15526" />
    <path
       style="fill:none;stroke:#000000;stroke-width:0.215817px;stroke-linecap:butt;stroke-linejoin:miter;stroke-opacity:1;marker-end:url(#marker7110)"
       d="m 102.74148,21.082465 v 5.577214"
       id="path15561" />
    <path
       style="fill:none;stroke:#000000;stroke-width:0.215817px;stroke-linecap:butt;stroke-linejoin:miter;stroke-opacity:1;marker-end:url(#marker7110)"
       d="M 37.805809,37.303807 V 42.88102"
       id="path15643" />
    <rect
       y="60.725578"
       x="14.64728"
       height="7.0221124"
       width="46.317059"
       id="rect15647"
       style="fill:#ff0000;fill-opacity:0.6;fill-rule:evenodd;stroke:#000000;stroke-width:0.208912;stroke-linejoin:miter;stroke-miterlimit:4;stroke-dasharray:1.67129, 1.67129;stroke-dashoffset:0;stroke-opacity:1" />
    <text
       xml:space="preserve"
       style="font-size:2.94799px;line-height:1.25;font-family:sans-serif;stroke-width:0.110549"
       x="27.607346"
       y="65.166389"
       id="text15651"><tspan
         sodipodi:role="line"
         id="tspan15649"
         x="27.607346"
         y="65.166389"
         style="stroke-width:0.110549">Alignment file</tspan></text>
    <path
       style="fill:none;stroke:#000000;stroke-width:0.215817px;stroke-linecap:butt;stroke-linejoin:miter;stroke-opacity:1;marker-end:url(#marker7110)"
       d="m 37.805809,53.274343 v 5.577205"
       id="path21829" />
    <path
       style="fill:none;stroke:#000000;stroke-width:0.215817px;stroke-linecap:butt;stroke-linejoin:miter;stroke-opacity:1;marker-end:url(#marker7110)"
       d="m 37.805809,69.676515 v 5.57722"
       id="path21831" />
    <path
       style="fill:none;stroke:#000000;stroke-width:0.215817px;stroke-linecap:butt;stroke-linejoin:miter;stroke-opacity:1;marker-end:url(#marker7110)"
       d="M 62.202113,64.501967 H 78.82973"
       id="path21833" />
    <rect
       y="60.725578"
       x="147.25613"
       height="7.0221124"
       width="46.317059"
       id="rect21835"
       style="fill:#ff0000;fill-opacity:0.6;fill-rule:evenodd;stroke:#000000;stroke-width:0.208912;stroke-linejoin:miter;stroke-miterlimit:4;stroke-dasharray:1.67129, 1.67129;stroke-dashoffset:0;stroke-opacity:1" />
    <text
       xml:space="preserve"
       style="font-size:2.94799px;line-height:1.25;font-family:sans-serif;stroke-width:0.110549"
       x="166.07402"
       y="65.166389"
       id="text21839"><tspan
         sodipodi:role="line"
         id="tspan21837"
         x="166.07402"
         y="65.166389"
         style="stroke-width:0.110549">Peaks</tspan></text>
    <path
       style="fill:none;stroke:#000000;stroke-width:0.215817px;stroke-linecap:butt;stroke-linejoin:miter;stroke-opacity:1;marker-end:url(#marker7110)"
       d="M 127.81072,64.501967 H 144.4384"
       id="path22459" />
    <rect
       y="77.039307"
       x="79.42749"
       height="7.0221124"
       width="46.317059"
       id="rect22461"
       style="fill:#ff0000;fill-opacity:0.6;fill-rule:evenodd;stroke:#000000;stroke-width:0.208912;stroke-linejoin:miter;stroke-miterlimit:4;stroke-dasharray:1.67129, 1.67129;stroke-dashoffset:0;stroke-opacity:1" />
    <text
       xml:space="preserve"
       style="font-size:2.94799px;line-height:1.25;font-family:sans-serif;stroke-width:0.110549"
       x="95.519783"
       y="81.649353"
       id="text22465"><tspan
         sodipodi:role="line"
         id="tspan22463"
         x="95.519783"
         y="81.649353"
         style="stroke-width:0.110549">Coverage</tspan></text>
    <path
       style="fill:none;stroke:#000000;stroke-width:0.215817px;stroke-linecap:butt;stroke-linejoin:miter;stroke-opacity:1;marker-end:url(#marker7110)"
       d="M 62.202113,80.472515 H 78.82973"
       id="path22467" />
    <path
       style="fill:none;stroke:#000000;stroke-width:0.215817px;stroke-linecap:butt;stroke-linejoin:miter;stroke-opacity:1;marker-end:url(#marker7110)"
       d="M 69.816761,64.48718 V 47.389081 h 74.419629"
       id="path23216" />
    <rect
       y="28.097639"
       x="147.25613"
       height="7.0221124"
       width="46.317059"
       id="rect23298"
       style="fill:#ff0000;fill-opacity:0.6;fill-rule:evenodd;stroke:#000000;stroke-width:0.208912;stroke-linejoin:miter;stroke-miterlimit:4;stroke-dasharray:1.67129, 1.67129;stroke-dashoffset:0;stroke-opacity:1" />
    <text
       xml:space="preserve"
       style="font-size:2.94799px;line-height:1.25;font-family:sans-serif;stroke-width:0.110549"
       x="161.57718"
       y="32.70771"
       id="text23302"><tspan
         sodipodi:role="line"
         id="tspan23300"
         x="161.57718"
         y="32.70771"
         style="stroke-width:0.110549">Interactions</tspan></text>
    <path
       style="fill:none;stroke:#000000;stroke-width:0.215817px;stroke-linecap:butt;stroke-linejoin:miter;stroke-opacity:1;marker-end:url(#marker7110)"
       d="M 170.41467,58.96662 V 53.389407"
       id="path23386" />
    <path
       style="fill:none;stroke:#000000;stroke-width:0.215817px;stroke-linecap:butt;stroke-linejoin:miter;stroke-opacity:1;marker-end:url(#marker7110)"
       d="M 170.41467,42.996084 V 37.418879"
       id="path23388" />
    <text
       xml:space="preserve"
       style="font-style:normal;font-weight:normal;font-size:7.82673px;line-height:1.25;font-family:sans-serif;fill:#000000;fill-opacity:1;stroke:none;stroke-width:0.293502"
       x="165.85757"
       y="13.064325"
       id="text24890"><tspan
         sodipodi:role="line"
         id="tspan24888"
         style="font-size:7.82673px;text-align:center;text-anchor:middle;stroke-width:0.293502"
         x="165.85757"
         y="13.064325">HiChIP NextFlow</tspan><tspan
         sodipodi:role="line"
         style="font-size:7.82673px;text-align:center;text-anchor:middle;stroke-width:0.293502"
         x="165.85757"
         y="22.847738"
         id="tspan24892">pipeline</tspan></text>
  </g>
</svg>
